<?xml version="1.0" encoding="utf-8"?>
<!-- Generator: Adobe Illustrator 27.8.0, SVG Export Plug-In . SVG Version: 6.00 Build 0)  -->
<svg version="1.1" id="Capa_1" xmlns="http://www.w3.org/2000/svg" xmlns:xlink="http://www.w3.org/1999/xlink" x="0px" y="0px"
	 viewBox="0 0 75.52 96.47" style="enable-background:new 0 0 75.52 96.47;" xml:space="preserve">
<style type="text/css">
	.st0{fill:#F1851E;}
	.st1{fill:none;}
</style>
<g>
	<g>
		<path class="st0" d="M69.4,59.78v3.81c-6.56,7.31-12.59,13.33-18.08,18.08c-5.49,4.75-10.85,8.4-16.08,10.96
			c-5.23,2.56-10.29,3.84-15.18,3.84c-4.22,0-7.84-0.84-10.87-2.52c-3.03-1.68-5.31-4.13-6.86-7.35c-1.54-3.22-2.31-7.04-2.31-11.46
			c0-3.48,0.56-7.16,1.67-11.04c1.11-3.89,2.72-7.81,4.83-11.78c2.11-3.96,4.7-8.06,7.76-12.28c3.07-4.22,6.67-8.65,10.81-13.3
			c4.3-4.8,8.53-8.95,12.71-12.45c4.18-3.5,7.97-6.24,11.37-8.23s6.55-3.48,9.46-4.45c2.91-0.98,5.32-1.46,7.24-1.46
			c1.95,0,3.61,0.47,4.98,1.41c1.37,0.94,2.42,2.31,3.16,4.1c0.74,1.8,1.11,3.87,1.11,6.21c0,4.41-1.5,9.33-4.51,14.74
			C67.62,32,63.87,37.22,59.38,42.26c-4.49,5.04-8.78,9.15-12.86,12.33c-4.08,3.18-7.02,4.78-8.82,4.78c-1.21,0-2.33-0.48-3.37-1.44
			c-1.04-0.96-1.55-2.04-1.55-3.25c0-2.23,1.18-4.92,3.54-8.09c2.36-3.16,4.94-6.06,7.73-8.7c2.79-2.64,4.46-3.96,5.01-3.96
			c0.27,0,0.41,0.12,0.41,0.35c0,0.35-0.21,0.96-0.62,1.82c-0.41,0.86-0.62,1.39-0.62,1.58c0,0.31,0.12,0.47,0.35,0.47
			c0.66,0,2.58-1.78,5.74-5.33c3.16-3.55,6.06-7.47,8.7-11.75s3.96-7.78,3.96-10.52c0-1.13-0.24-2-0.73-2.61
			c-0.49-0.6-1.22-0.91-2.2-0.91c-2.73,0-6.88,2.22-12.45,6.65c-5.57,4.43-11.27,10.08-17.11,16.93
			c-5.84,6.85-10.71,13.94-14.62,21.24c-3.91,7.31-5.86,13.73-5.86,19.28c0,3.2,0.48,5.88,1.44,8.03c0.96,2.15,2.36,3.81,4.22,4.98
			c1.85,1.17,4.09,1.76,6.71,1.76c5.66,0,12.09-2.21,19.28-6.62C52.85,74.88,60.76,68.38,69.4,59.78z"/>
	</g>
</g>
<g>
	<rect x="38.44" y="52.34" class="st1" width="9" height="2"/>
</g>
<g>
</g>
<g>
</g>
<g>
</g>
<g>
</g>
<g>
</g>
<g>
</g>
</svg>
