<?xml version="1.0" encoding="utf-8"?>
<!-- Generator: Adobe Illustrator 27.8.0, SVG Export Plug-In . SVG Version: 6.00 Build 0)  -->
<svg version="1.1" id="Capa_1" xmlns="http://www.w3.org/2000/svg" xmlns:xlink="http://www.w3.org/1999/xlink" x="0px" y="0px"
	 viewBox="0 0 247.62 108.12" style="enable-background:new 0 0 247.62 108.12;" xml:space="preserve">
<style type="text/css">
	.st0{fill:#F1851E;}
	.st1{fill:none;}
</style>
<g>
	<g>
		<path class="st0" d="M69.41,59.78v3.81c-6.56,7.3-12.59,13.33-18.08,18.08c-5.49,4.75-10.85,8.4-16.08,10.96
			c-5.23,2.56-10.29,3.84-15.18,3.84c-4.22,0-7.84-0.84-10.87-2.52c-3.03-1.68-5.31-4.13-6.86-7.35c-1.54-3.22-2.31-7.04-2.31-11.46
			c0-3.48,0.56-7.16,1.67-11.04c1.11-3.89,2.72-7.81,4.83-11.78c2.11-3.96,4.7-8.06,7.76-12.28c3.07-4.22,6.67-8.65,10.81-13.3
			c4.3-4.8,8.53-8.95,12.71-12.45c4.18-3.5,7.97-6.24,11.37-8.23s6.55-3.48,9.46-4.45c2.91-0.98,5.32-1.46,7.24-1.46
			c1.95,0,3.61,0.47,4.98,1.41c1.37,0.94,2.42,2.31,3.16,4.1c0.74,1.8,1.11,3.87,1.11,6.21c0,4.41-1.5,9.33-4.51,14.74
			C67.63,32,63.88,37.22,59.39,42.26c-4.49,5.04-8.78,9.15-12.86,12.33c-4.08,3.18-7.02,4.78-8.82,4.78c-1.21,0-2.33-0.48-3.37-1.44
			c-1.04-0.96-1.55-2.04-1.55-3.25c0-2.23,1.18-4.92,3.54-8.09c2.36-3.16,4.94-6.06,7.73-8.7c2.79-2.64,4.46-3.96,5.01-3.96
			c0.27,0,0.41,0.12,0.41,0.35c0,0.35-0.21,0.96-0.62,1.82c-0.41,0.86-0.62,1.39-0.62,1.58c0,0.31,0.12,0.47,0.35,0.47
			c0.66,0,2.58-1.78,5.74-5.33c3.16-3.55,6.06-7.47,8.7-11.75c2.64-4.28,3.96-7.78,3.96-10.52c0-1.13-0.24-2-0.73-2.61
			c-0.49-0.6-1.22-0.91-2.2-0.91c-2.73,0-6.88,2.22-12.45,6.65c-5.57,4.43-11.27,10.08-17.11,16.93
			C28.68,37.49,23.8,44.57,19.9,51.87c-3.91,7.31-5.86,13.73-5.86,19.28c0,3.2,0.48,5.88,1.44,8.03c0.96,2.15,2.36,3.81,4.22,4.98
			c1.85,1.17,4.09,1.76,6.71,1.76c5.66,0,12.09-2.21,19.28-6.62C52.86,74.88,60.77,68.37,69.41,59.78z"/>
		<path class="st0" d="M96.48,56.03c-5.66,7.5-9.97,12.83-12.92,16c-2.95,3.16-5.36,4.75-7.24,4.75c-1.48,0-2.85-0.62-4.1-1.85
			c-1.25-1.23-2.22-2.89-2.9-4.98c-0.68-2.09-1.03-4.33-1.03-6.71c0-1.56,0.15-2.97,0.44-4.22c0.29-1.25,0.85-2.63,1.67-4.13
			c0.82-1.5,1.9-3.13,3.25-4.89s3-3.75,4.95-5.98c1.17-1.37,2.16-2.52,2.96-3.46c0.8-0.94,1.58-1.57,2.34-1.9
			c0.76-0.33,2-0.5,3.72-0.5c1.25,0,2.44,0.17,3.57,0.5c1.13,0.33,1.7,0.67,1.7,1.03c0,0.7-0.58,1.97-1.73,3.81
			c-1.15,1.84-3.01,4.07-5.57,6.71c-2.56,2.64-5.52,5.23-8.88,7.76c-0.74,2.31-1.11,4.06-1.11,5.27c0,1.68,0.64,2.52,1.93,2.52
			c0.47,0,1.25-0.4,2.34-1.2c1.09-0.8,2.94-2.34,5.54-4.63c2.6-2.29,4.93-4.31,7-6.06c1.52-1.33,3.29-3.31,5.3-5.95
			c2.01-2.64,3.64-4.62,4.89-5.95c2.89-3.05,4.86-5.03,5.92-5.95c1.05-0.92,2.07-1.38,3.05-1.38c0.94,0,1.57,0.29,1.9,0.88
			c0.33,0.59,0.5,1.78,0.5,3.57c0,0.82-0.08,1.48-0.23,1.99c-0.16,0.51-0.48,1.16-0.97,1.96c-0.49,0.8-1.48,2.28-2.96,4.42
			c-1.49,2.15-3.24,4.69-5.27,7.62c-1.09,1.56-2.05,3.27-2.87,5.13c-0.82,1.86-1.23,3.25-1.23,4.19c0,2.03,0.8,3.05,2.4,3.05
			c1.33,0,2.87-0.55,4.63-1.64c1.76-1.09,4.45-3.07,8.09-5.92v3.93c-4.57,4.22-7.95,7.29-10.14,9.2c-2.19,1.91-4.08,3.36-5.68,4.34
			c-1.6,0.98-3.13,1.46-4.57,1.46c-3.28,0-4.92-1.95-4.92-5.86c0-1.48,0.49-3.49,1.46-6.01C92.71,64.44,94.29,60.8,96.48,56.03z"/>
		<path class="st0" d="M161.63,63.94l-19.45,16c-5.47,9.45-10.45,16.51-14.94,21.18c-4.49,4.67-7.83,7-10.02,7
			c-1.17,0-1.76-0.72-1.76-2.17c0-2.81,1.42-6.41,4.28-10.78c1.13-1.72,2.43-3.4,3.9-5.04s2.85-3.06,4.16-4.25
			c1.31-1.19,3.04-2.68,5.19-4.45c2.15-1.78,3.61-3,4.39-3.66c3.91-7.97,6.72-14.06,8.44-18.28c-3.67,3.91-6.88,7.11-9.61,9.61
			c-2.74,2.5-5.24,4.42-7.53,5.77c-2.29,1.35-4.35,2.02-6.18,2.02c-1.99,0-3.83-1.59-5.51-4.78c-1.68-3.18-2.52-6.45-2.52-9.81
			c0-1.56,0.36-3.2,1.08-4.92c0.72-1.72,1.85-3.55,3.4-5.51c1.54-1.95,3.5-3.96,5.89-6.01c2.38-2.05,5.17-4.05,8.38-6.01
			c6.05-3.79,10.76-5.68,14.12-5.68c2.5,0,3.75,0.92,3.75,2.75c0,2.54-2.72,5.02-8.14,7.44c-3.32,1.45-6.61,3.36-9.87,5.74
			c-3.26,2.38-5.9,4.91-7.91,7.59c-2.01,2.68-3.02,5.09-3.02,7.24c0,1.05,0.25,1.9,0.76,2.52c0.51,0.63,1.17,0.94,1.99,0.94
			c1.37,0,2.93-0.62,4.69-1.88c1.76-1.25,4.35-3.46,7.79-6.62c1.56-1.44,3.64-3.78,6.24-7c2.6-3.22,4.75-5.68,6.45-7.38
			s3.23-2.55,4.6-2.55c0.78,0,1.42,0.24,1.9,0.73c0.49,0.49,0.73,1.2,0.73,2.14c0,1.8-0.71,4.4-2.14,7.82
			c-1.43,3.42-4,9.01-7.71,16.79l14.18-10.31V63.94z"/>
		<path class="st0" d="M168.08,49.53c5.94-5.39,11.7-9.39,17.29-12.01c5.59-2.62,9.9-3.93,12.95-3.93c0.82,0,1.58,0.34,2.29,1.03
			c0.7,0.68,1.26,1.48,1.67,2.37c0.41,0.9,0.62,1.56,0.62,1.99c0,0.7-0.27,1.22-0.82,1.55c-0.55,0.33-1.5,0.73-2.87,1.2
			c0.27,0.63,0.62,1.43,1.05,2.4c0.43,0.98,0.76,1.77,1,2.37c0.23,0.61,0.35,1.14,0.35,1.61c0,0.94-0.95,2.69-2.84,5.24
			c-1.9,2.56-3.22,4.44-3.98,5.65c-0.76,1.21-1.14,2.7-1.14,4.45c0,2.89,1.33,4.34,3.98,4.34c2.73,0,7.01-2.56,12.83-7.68v3.57
			c-9.88,10.98-16.95,16.46-21.21,16.46c-1.52,0-2.61-0.5-3.25-1.49s-0.97-2.47-0.97-4.42c0-3.09,1.11-7.56,3.34-13.42
			c-5.7,6.33-9.94,10.83-12.71,13.51c-2.77,2.68-5.06,4.01-6.86,4.01c-0.86,0-1.93-0.74-3.22-2.23s-2.43-3.41-3.43-5.77
			c-1-2.36-1.49-4.81-1.49-7.35c0-1.84,0.18-3.37,0.53-4.6s1.03-2.49,2.05-3.78C164.23,53.33,165.85,51.64,168.08,49.53z
			 M196.15,43.08c-10.16,4.65-17.39,8.59-21.71,11.84c-4.32,3.24-6.47,6.58-6.47,10.02c0,1.25,0.21,2.28,0.64,3.08
			c0.43,0.8,1.02,1.2,1.76,1.2c0.43,0,1.19-0.27,2.29-0.82c4.1-2.42,7.85-5.58,11.25-9.46C187.3,55.04,191.38,49.76,196.15,43.08z"
			/>
		<path class="st0" d="M230.48,29.6H233c2.07-3.71,3.95-6.34,5.62-7.88c1.68-1.54,3.59-2.31,5.74-2.31c2.15,0,3.22,0.49,3.22,1.46
			c0,0.47-0.84,1.74-2.52,3.81c-1.68,2.07-2.95,3.81-3.81,5.21c1.33,0.16,2.51,0.29,3.54,0.41c1.03,0.12,1.85,0.22,2.43,0.29
			c-2.23,4.14-5.02,8.38-8.38,12.71c-1.09-0.08-2.01-0.15-2.75-0.21c-0.74-0.06-1.49-0.12-2.26-0.18s-1.69-0.13-2.78-0.21
			c-2.11,3.4-3.88,6.44-5.3,9.11c-1.43,2.68-2.52,5.13-3.28,7.35s-1.14,4.34-1.14,6.33c0,2.7,1.07,4.04,3.22,4.04
			c1.48,0,3.43-0.79,5.83-2.37s5.62-4.01,9.64-7.29v3.93c-10.55,11.45-18.34,17.17-23.38,17.17c-1.76,0-3.17-0.68-4.25-2.05
			c-1.08-1.37-1.61-3.12-1.61-5.27c0-1.45,0.3-3.16,0.91-5.16c0.61-1.99,1.69-5,3.25-9.02c-0.55,0.47-1.06,0.93-1.55,1.38
			c-0.49,0.45-0.94,0.86-1.35,1.23c-0.41,0.37-0.85,0.76-1.32,1.17s-0.94,0.83-1.41,1.26v-4.04c4.1-3.44,9.06-9.47,14.88-18.11
			c-0.59-0.04-1.13-0.07-1.64-0.09c-0.51-0.02-1.11-0.03-1.82-0.03c-2.31,0-4.02,0.16-5.16,0.47c-0.47,0.12-0.91,0.24-1.32,0.38
			c-0.41,0.14-0.69,0.21-0.85,0.21c-0.16,0-0.23-0.12-0.23-0.35c0-1.29,0.8-3.22,2.4-5.8c1.29-2.19,2.51-3.81,3.66-4.86
			c1.15-1.05,2.56-1.77,4.22-2.14C225.14,29.79,227.47,29.6,230.48,29.6z"/>
	</g>
</g>
<g>
	<rect x="38.46" y="52.34" class="st1" width="9" height="2"/>
</g>
<g>
</g>
<g>
</g>
<g>
</g>
<g>
</g>
<g>
</g>
<g>
</g>
</svg>
